<?xml version="1.0" encoding="UTF-8" standalone="no"?>
<!-- Generator: Adobe Illustrator 19.0.0, SVG Export Plug-In . SVG Version: 6.00 Build 0)  -->

<svg
   version="1.1"
   id="Capa_1"
   x="0px"
   y="0px"
   viewBox="0 0 489.242 489.242"
   style="enable-background:new 0 0 489.242 489.242;"
   xml:space="preserve"
   sodipodi:docname="bulb-on.svg"
   inkscape:version="1.2.1 (9c6d41e410, 2022-07-14, custom)"
   xmlns:inkscape="http://www.inkscape.org/namespaces/inkscape"
   xmlns:sodipodi="http://sodipodi.sourceforge.net/DTD/sodipodi-0.dtd"
   xmlns="http://www.w3.org/2000/svg"
   xmlns:svg="http://www.w3.org/2000/svg"><defs
   id="defs43" /><sodipodi:namedview
   id="namedview41"
   pagecolor="#ffffff"
   bordercolor="#000000"
   borderopacity="0.25"
   inkscape:showpageshadow="2"
   inkscape:pageopacity="0.0"
   inkscape:pagecheckerboard="0"
   inkscape:deskcolor="#d1d1d1"
   showgrid="false"
   inkscape:zoom="1.5186758"
   inkscape:cx="132.68138"
   inkscape:cy="244.29177"
   inkscape:window-width="1920"
   inkscape:window-height="989"
   inkscape:window-x="0"
   inkscape:window-y="0"
   inkscape:window-maximized="1"
   inkscape:current-layer="g6" />
<g
   id="g8">
	<g
   id="g6">
		<path
   d="M416.321,171.943c0-97.8-82.2-176.9-181-171.7c-89.5,5.2-160.3,79.1-162.4,168.6c0,44.7,16.6,86.3,45.8,118.6    c47.7,51.1,41.6,110.3,41.6,110.3c0,11.4,9.4,20.8,20.8,20.8h126.9c11.4,0,20.8-9.4,21.8-20.8c0,0-7-57.7,40.6-109.2    C399.621,257.243,416.321,215.643,416.321,171.943z M288.321,377.943h-87.4c-2.1-42.7-20.8-84.3-51-116.5    c-22.9-25-34.3-57.2-34.3-90.5c1-68.7,54.1-124.8,122.8-129c74.9-4.2,137.3,56.2,137.3,130c0,32.3-12.5,64.5-35.4,88.4    C309.121,293.643,290.421,335.243,288.321,377.943z"
   id="path2" />
		<path
   d="M281.021,447.643h-73.9c-11.4,0-20.8,9.4-20.8,20.8s9.4,20.8,20.8,20.8h73.9c11.4,0,20.8-9.4,20.8-20.8    C301.821,457.043,292.521,447.643,281.021,447.643z"
   id="path4" />
	<path
   style="fill:#333535;fill-opacity:1;stroke-width:0.658468"
   d="m 218.62716,284.62296 c -2.45255,-22.74076 -11.49432,-43.73617 -26.39962,-61.30115 -10.92053,-12.86919 -13.87373,-17.23966 -17.82575,-26.38063 -3.94265,-9.1193 -5.59638,-16.88118 -5.97499,-28.04404 -0.49697,-14.65224 1.73762,-25.31464 7.85756,-37.49264 10.56643,-21.02599 28.47404,-35.192708 51.87493,-41.038263 6.00671,-1.500477 8.25314,-1.724051 17.12018,-1.703861 10.86514,0.02474 15.53035,0.755836 24.90565,3.903022 22.02255,7.392724 40.845,26.552492 48.45593,49.324312 2.95835,8.85133 3.87367,15.89075 3.46891,26.67819 -0.74837,19.94485 -6.92127,34.25134 -22.16084,51.36054 -8.81541,9.89691 -13.87567,17.50739 -19.48295,29.30184 -5.14326,10.81841 -8.5027,22.88778 -9.85133,35.39268 l -0.40833,3.78619 H 244.621 219.0355 Z"
   id="path1029" /><path
   style="fill:#ffe680;fill-opacity:1;stroke-width:1.10075"
   d="m 202.2195,373.48696 c -0.26585,-1.35735 -1.3102,-7.87838 -2.32075,-14.4912 -3.7742,-24.69736 -14.07217,-50.98462 -28.52168,-72.80623 -3.85902,-5.82784 -12.54436,-17.25942 -19.30077,-25.4035 -13.99731,-16.87213 -20.3208,-26.89883 -26.11977,-41.41636 -5.86418,-14.6807 -7.35595,-22.6876 -8.01911,-43.04079 -0.80622,-24.7444 2.00235,-39.22821 11.434,-58.9652 18.23346,-38.15599 55.69541,-65.966219 97.92992,-72.699222 11.72717,-1.869541 35.99122,-0.764557 48.0778,2.189458 24.1432,5.900694 45.78457,18.633237 63.5607,37.395414 13.97476,14.749975 25.04332,33.93582 31.29085,54.23838 2.9027,9.43302 3.03521,10.8706 2.98208,32.35693 -0.0512,20.6115 -0.29308,23.36465 -2.90527,33.03657 -4.89055,18.10754 -13.38587,33.5103 -28.36082,51.42059 -21.28483,25.45704 -26.69501,33.14865 -35.29351,50.17688 -9.0613,17.94469 -16.40221,41.8018 -18.3241,59.55121 -0.42201,3.8973 -1.01355,7.94977 -1.31456,9.00548 -0.50887,1.78478 -3.48662,1.91949 -42.42947,1.91949 h -41.88219 z"
   id="path1031" /></g>
</g>
<g
   id="g10">
</g>
<g
   id="g12">
</g>
<g
   id="g14">
</g>
<g
   id="g16">
</g>
<g
   id="g18">
</g>
<g
   id="g20">
</g>
<g
   id="g22">
</g>
<g
   id="g24">
</g>
<g
   id="g26">
</g>
<g
   id="g28">
</g>
<g
   id="g30">
</g>
<g
   id="g32">
</g>
<g
   id="g34">
</g>
<g
   id="g36">
</g>
<g
   id="g38">
</g>
</svg>
