<?xml version="1.0" encoding="iso-8859-1"?>
<!-- Generator: Adobe Illustrator 19.0.0, SVG Export Plug-In . SVG Version: 6.00 Build 0)  -->
<svg version="1.1" id="Layer_1" xmlns="http://www.w3.org/2000/svg" xmlns:xlink="http://www.w3.org/1999/xlink" x="0px" y="0px"
	 viewBox="0 0 512.001 512.001" style="enable-background:new 0 0 512.001 512.001;" xml:space="preserve">
<g>
	<path style="fill:#FCD051;" d="M458.663,390.163H53.332V96.001h405.331V390.163L458.663,390.163z M478.293,53.335H33.708
		c-12.672,0-23.041,10.369-23.041,23.038v359.25c0,12.672,10.369,23.042,23.041,23.042h444.586c12.67,0,23.039-10.37,23.039-23.042
		V76.374C501.333,63.704,490.963,53.335,478.293,53.335z"/>
	<path style="fill:#ABB8B9;" d="M53.332,390.163h405.331V96.001H53.332V390.163L53.332,390.163z M298.512,256.089l-30.898,17.839
		l0.014,0.027l-31.116,17.964c-7.117,4.123-16.228,1.692-20.351-5.425c-1.362-2.352-2.009-4.927-2.009-7.465h-0.031v-35.93v-35.932
		c0-8.243,6.684-14.926,14.93-14.926c3.09,0,5.96,0.938,8.338,2.548l30.239,17.455l0.768,0.477l30.296,17.487
		c7.113,4.094,9.57,13.182,5.482,20.295C302.775,252.935,300.796,254.822,298.512,256.089z"/>
	<path style="fill:#D12D4E;" d="M236.512,291.919l31.116-17.964l-0.014-0.027l30.898-17.839c2.284-1.267,4.263-3.154,5.661-5.585
		c4.088-7.113,1.631-16.202-5.482-20.295l-30.295-17.487l-0.768-0.477l-30.239-17.455c-2.378-1.611-5.247-2.548-8.338-2.548
		c-8.246,0-14.93,6.684-14.93,14.926v35.932v35.93h0.031c0,2.538,0.645,5.113,2.009,7.465
		C220.283,293.611,229.394,296.042,236.512,291.919z"/>
	<g>
		<path style="fill:#000003;" d="M478.293,42.668H33.708C15.122,42.668,0,57.788,0,76.374v359.25
			c0,18.587,15.122,33.709,33.708,33.709h444.586c18.586,0,33.707-15.122,33.707-33.709V76.374
			C512,57.788,496.879,42.668,478.293,42.668z M490.665,435.625c0,6.823-5.549,12.374-12.372,12.374H33.708
			c-6.823,0-12.373-5.55-12.373-12.374V76.374c0-6.822,5.55-12.372,12.373-12.372h444.586c6.823,0,12.372,5.55,12.372,12.372
			v359.251H490.665z"/>
		<path style="fill:#000003;" d="M458.663,85.333H53.332c-5.891,0-10.667,4.777-10.667,10.667v294.163
			c0,5.891,4.777,10.667,10.667,10.667h405.331c5.891,0,10.667-4.777,10.667-10.667V96.001
			C469.33,90.109,464.553,85.333,458.663,85.333z M447.995,379.495H63.999V106.668h383.996V379.495z"/>
		<path style="fill:#000003;" d="M206.929,291.841c4.557,7.866,13.039,12.753,22.135,12.753c4.48,0,8.905-1.19,12.782-3.437
			l31.115-17.968c0.218-0.126,0.429-0.258,0.636-0.398l30.18-17.424c4.01-2.244,7.343-5.545,9.645-9.548
			c3.397-5.911,4.288-12.791,2.51-19.375c-1.779-6.585-6.015-12.082-11.908-15.469l-30.058-17.354
			c-0.334-0.213-0.669-0.421-1.006-0.614l-29.952-17.29c-4.153-2.712-8.969-4.143-13.958-4.143
			c-14.115,0-25.598,11.481-25.598,25.593v71.861c0,0.364,0.018,0.724,0.054,1.078C203.683,284.219,204.855,288.252,206.929,291.841
			z M224.788,207.167c0-2.348,1.912-4.258,4.263-4.258c1.077,0,1.876,0.387,2.357,0.714c0.21,0.143,0.427,0.278,0.648,0.405
			l30.254,17.465c0.081,0.048,0.158,0.1,0.236,0.151c0.169,0.111,0.341,0.215,0.515,0.317l30.315,17.501
			c1.31,0.753,1.79,1.918,1.96,2.544c0.169,0.627,0.34,1.874-0.411,3.181c-0.389,0.676-0.923,1.206-1.587,1.576
			c-0.054,0.029-0.107,0.06-0.159,0.09l-30.898,17.839c-0.218,0.125-0.43,0.258-0.637,0.398l-30.479,17.601
			c-0.654,0.378-1.36,0.57-2.1,0.57c-1.534,0-2.907-0.789-3.669-2.106c-0.382-0.66-0.576-1.376-0.576-2.125
			c0-0.276-0.011-0.549-0.031-0.82L224.788,207.167L224.788,207.167z"/>
		<path style="fill:#000003;" d="M96.006,248.198c5.891,0,10.667-4.777,10.667-10.667v-0.256c0-5.891-4.777-10.667-10.667-10.667
			s-10.667,4.777-10.667,10.667v0.256C85.338,243.423,90.115,248.198,96.006,248.198z"/>
		<path style="fill:#000003;" d="M96.001,358.167c5.891,0,10.667-4.777,10.667-10.667v-79.326c0-5.892-4.777-10.667-10.667-10.667
			s-10.667,4.776-10.667,10.667v79.326C85.334,353.391,90.111,358.167,96.001,358.167z"/>
		<path style="fill:#000003;" d="M416.003,237.965c-5.892,0-10.667,4.777-10.667,10.667v0.256c0,5.891,4.776,10.667,10.667,10.667
			c5.892,0,10.667-4.777,10.667-10.667v-0.256C426.67,242.741,421.894,237.965,416.003,237.965z"/>
		<path style="fill:#000003;" d="M415.999,228.658c5.892,0,10.667-4.777,10.667-10.667v-79.326c0-5.891-4.776-10.667-10.667-10.667
			s-10.667,4.777-10.667,10.667v79.326C405.331,223.882,410.106,228.658,415.999,228.658z"/>
		<path style="fill:#000003;" d="M255.999,411.079c-7.343,0-13.333,5.99-13.333,13.334c0,7.342,5.99,13.332,13.333,13.332
			c7.345,0,13.333-5.99,13.333-13.332C269.333,417.069,263.343,411.079,255.999,411.079z"/>
	</g>
</g>
<g>
</g>
<g>
</g>
<g>
</g>
<g>
</g>
<g>
</g>
<g>
</g>
<g>
</g>
<g>
</g>
<g>
</g>
<g>
</g>
<g>
</g>
<g>
</g>
<g>
</g>
<g>
</g>
<g>
</g>
</svg>
