<?xml version="1.0" ?><svg width="117px" height="117px" viewBox="0 0 117 117" version="1.1" xmlns="http://www.w3.org/2000/svg" xmlns:xlink="http://www.w3.org/1999/xlink"><title/><desc/><defs/><g fill="none" fill-rule="evenodd" id="Page-1" stroke="none" stroke-width="1"><g fill-rule="nonzero" id="layout"><path d="M4.5,52.9 L48.8,52.9 C51.1,52.9 52.9,51.1 52.9,48.8 L52.9,4.5 C52.9,2.2 51.1,0.4 48.8,0.4 L4.5,0.4 C2.2,0.4 0.4,2.2 0.4,4.5 L0.4,48.8 C0.4,51 2.3,52.9 4.5,52.9 Z M8.6,8.6 L44.7,8.6 L44.7,44.7 L8.6,44.7 L8.6,8.6 Z" fill="#4A4A4A" id="Shape"/><path d="M116.6,4.5 C116.6,2.2 114.8,0.4 112.5,0.4 L68.2,0.4 C65.9,0.4 64.1,2.2 64.1,4.5 L64.1,48.8 C64.1,51.1 65.9,52.9 68.2,52.9 L112.5,52.9 C114.8,52.9 116.6,51.1 116.6,48.8 L116.6,4.5 Z M108.4,44.7 L72.3,44.7 L72.3,8.6 L108.4,8.6 L108.4,44.7 Z" fill="#17AB13" id="Shape"/><path d="M4.5,116.6 L48.8,116.6 C51.1,116.6 52.9,114.8 52.9,112.5 L52.9,68.2 C52.9,65.9 51.1,64.1 48.8,64.1 L4.5,64.1 C2.2,64.1 0.4,65.9 0.4,68.2 L0.4,112.5 C0.4,114.7 2.3,116.6 4.5,116.6 Z M8.6,72.3 L44.7,72.3 L44.7,108.4 L8.6,108.4 L8.6,72.3 Z" fill="#17AB13" id="Shape"/><path d="M112.5,64.1 L68.2,64.1 C65.9,64.1 64.1,65.9 64.1,68.2 L64.1,112.5 C64.1,114.8 65.9,116.6 68.2,116.6 L112.5,116.6 C114.8,116.6 116.6,114.8 116.6,112.5 L116.6,68.2 C116.6,66 114.7,64.1 112.5,64.1 Z M108.4,108.4 L72.3,108.4 L72.3,72.3 L108.4,72.3 L108.4,108.4 Z" fill="#4A4A4A" id="Shape"/></g></g></svg>