<?xml version="1.0" encoding="iso-8859-1"?>
<!-- Generator: Adobe Illustrator 19.0.0, SVG Export Plug-In . SVG Version: 6.00 Build 0)  -->
<svg version="1.1" id="Layer_1" xmlns="http://www.w3.org/2000/svg" xmlns:xlink="http://www.w3.org/1999/xlink" x="0px" y="0px"
	 viewBox="0 0 475 475" style="enable-background:new 0 0 475 475;" xml:space="preserve">
<g>
	<g id="XMLID_30_">
		<g>
			<rect x="202.5" y="395" style="fill:#546A79;" width="70" height="50"/>
			<polygon style="fill:#AFB6BB;" points="292.5,355 292.5,395 272.5,395 202.5,395 182.5,395 182.5,355 			"/>
			<rect x="182.5" y="320" style="fill:#E7ECED;" width="110" height="35"/>
			<path style="fill:#FFD248;" d="M377.5,150c0,57.798-35,107.402-85,128.799V320h-110v-41.201c-50-21.396-85-71.001-85-128.799
				c0-77.3,62.695-140,140-140S377.5,72.7,377.5,150z"/>
			<path style="fill:#FECA47;" d="M332.5,150c0,52.466-42.529,95-95,95c-52.461,0-95-42.534-95-95s42.539-95,95-95
				C289.971,55,332.5,97.534,332.5,150z"/>
		</g>
		<g>
			<path style="fill:#231F20;" d="M237.5,0c-82.71,0-150,67.29-150,150c0,57.925,33.147,110.298,85,135.238V395
				c0,5.523,4.477,10,10,10h10v40c0,5.523,4.477,10,10,10h25v20h20v-20h25c5.522,0,10-4.477,10-10v-40h10c5.522,0,10-4.477,10-10
				V285.238c51.853-24.939,85-77.313,85-135.238C387.5,67.29,320.21,0,237.5,0z M192.5,330h90v15h-90V330z M262.5,435h-50v-30h50
				V435z M282.5,385h-10h-70h-10v-20h90V385z M288.565,269.605c-3.679,1.574-6.065,5.191-6.065,9.193V310h-90v-31.201
				c0-4.002-2.387-7.619-6.065-9.193C138.483,249.086,107.5,202.138,107.5,150c0-71.682,58.317-130,130-130s130,58.318,130,130
				C367.5,202.138,336.517,249.086,288.565,269.605z"/>
			<path style="fill:#231F20;" d="M272.5,145h-56.618l45.014-69.567l-16.791-10.865l-55,85c-1.99,3.076-2.14,6.994-0.389,10.211
				c1.751,3.218,5.121,5.221,8.784,5.221h59.242l-33.29,70.742l18.096,8.516l40-85c1.458-3.098,1.229-6.726-0.605-9.616
				C279.109,146.751,275.924,145,272.5,145z"/>
			<rect x="137.5" y="145" style="fill:#231F20;" width="20" height="20"/>
			<rect x="317.5" y="145" style="fill:#231F20;" width="20" height="20"/>
		</g>
	</g>
</g>
<g>
</g>
<g>
</g>
<g>
</g>
<g>
</g>
<g>
</g>
<g>
</g>
<g>
</g>
<g>
</g>
<g>
</g>
<g>
</g>
<g>
</g>
<g>
</g>
<g>
</g>
<g>
</g>
<g>
</g>
</svg>
