<?xml version="1.0" encoding="iso-8859-1"?>
<!-- Generator: Adobe Illustrator 19.0.0, SVG Export Plug-In . SVG Version: 6.00 Build 0)  -->
<svg version="1.1" id="Layer_1" xmlns="http://www.w3.org/2000/svg" xmlns:xlink="http://www.w3.org/1999/xlink" x="0px" y="0px"
	 viewBox="0 0 512 512" style="enable-background:new 0 0 512 512;" xml:space="preserve">
<path style="fill:#B3B3B3;" d="M452.228,470.818H59.772V206.427C59.772,98.053,147.626,10.199,256,10.199l0,0
	c108.374,0,196.228,87.854,196.228,196.228L452.228,470.818L452.228,470.818z"/>
<g>
	<rect x="86.112" y="470.816" style="fill:#00A99D;" width="86.754" height="30.983"/>
	<rect x="339.134" y="470.816" style="fill:#00A99D;" width="86.754" height="30.983"/>
	<rect x="17.43" y="236.377" style="fill:#00A99D;" width="477.139" height="36.147"/>
</g>
<g>
	<rect x="17.43" y="272.523" style="fill:#F7931E;" width="477.139" height="37.18"/>
	<path style="fill:#F7931E;" d="M407.302,210.557c0-83.562-67.74-151.302-151.302-151.302s-151.302,67.74-151.302,151.302
		c0,8.803,0.761,17.428,2.203,25.819h298.196C406.541,227.986,407.302,219.361,407.302,210.557z"/>
</g>
<path style="fill:#00A99D;" d="M256,361.86c45.635,0,86.549-20.205,114.29-52.156H141.71C169.451,341.655,210.365,361.86,256,361.86
	z"/>
<path d="M504.771,236.378c0-5.632-4.566-10.199-10.199-10.199h-32.145v-19.752C462.427,92.603,369.824,0,256,0
	S49.573,92.603,49.573,206.427v19.752H17.428c-5.633,0-10.199,4.567-10.199,10.199v73.327c0,5.632,4.566,10.199,10.199,10.199
	h32.145v150.915c0,5.632,4.566,10.199,10.199,10.199h16.136v20.783c0,5.632,4.566,10.199,10.199,10.199h86.753
	c5.633,0,10.199-4.567,10.199-10.199v-20.784h145.878v20.784c0,5.632,4.566,10.199,10.199,10.199h86.753
	c5.633,0,10.199-4.567,10.199-10.199v-20.784h16.136c5.633,0,10.199-4.567,10.199-10.199V319.903h32.145
	c5.633,0,10.199-4.567,10.199-10.199v-73.326H504.771z M69.972,206.427C69.972,103.85,153.424,20.398,256,20.398
	s186.028,83.452,186.028,186.028v19.752h-25.29c0.501-5.195,0.763-10.417,0.763-15.62c0-89.052-72.449-161.501-161.501-161.501
	s-161.501,72.449-161.501,161.5c0,5.204,0.262,10.425,0.763,15.62h-25.29V206.427z M114.897,210.557
	c0-77.804,63.298-141.103,141.103-141.103s141.103,63.299,141.103,141.103c0,5.206-0.289,10.433-0.862,15.62H115.76
	C115.187,220.99,114.897,215.763,114.897,210.557z M484.372,246.577v15.749H27.628v-15.749H484.372z M162.662,491.602H96.307
	v-10.585h66.355V491.602z M415.693,491.602h-66.355v-10.585h66.355V491.602z M69.972,460.618V319.903h67.183
	c30.564,33.204,73.608,52.156,118.845,52.156s88.281-18.952,118.845-52.156h67.183v140.715H69.972z M166.823,319.903h178.353
	C320.171,340.298,288.744,351.66,256,351.66S191.829,340.298,166.823,319.903z M27.628,299.505v-16.781h456.744v16.781H27.628z"/>
<path d="M282.852,429.635H93.854c-5.633,0-10.199,4.567-10.199,10.199c0,5.632,4.566,10.199,10.199,10.199h188.998
	c5.633,0,10.199-4.567,10.199-10.199C293.052,434.203,288.486,429.635,282.852,429.635z"/>
<path d="M325.197,429.635h-7.229c-5.633,0-10.199,4.567-10.199,10.199c0,5.632,4.566,10.199,10.199,10.199h7.229
	c5.633,0,10.199-4.567,10.199-10.199C335.396,434.203,330.83,429.635,325.197,429.635z"/>
<g>
</g>
<g>
</g>
<g>
</g>
<g>
</g>
<g>
</g>
<g>
</g>
<g>
</g>
<g>
</g>
<g>
</g>
<g>
</g>
<g>
</g>
<g>
</g>
<g>
</g>
<g>
</g>
<g>
</g>
</svg>
