<?xml version="1.0" encoding="iso-8859-1"?>
<!-- Generator: Adobe Illustrator 19.0.0, SVG Export Plug-In . SVG Version: 6.00 Build 0)  -->
<svg version="1.1" id="Layer_1" xmlns="http://www.w3.org/2000/svg" xmlns:xlink="http://www.w3.org/1999/xlink" x="0px" y="0px"
	 viewBox="0 0 512 512" style="enable-background:new 0 0 512 512;" xml:space="preserve">
<path style="fill:#D0E8FF;" d="M256,394.874c-12.017,0-22.141,7.816-25.84,18.594c8.592,0.34,17.217,0.531,25.84,0.531
	c8.623,0,17.248-0.191,25.84-0.531C278.141,402.69,268.017,394.874,256,394.874z"/>
<path style="fill:#5CB0FF;" d="M256,83.177c-131.08,0-237.714,106.638-237.714,237.714c0,53.404,91.287,84.559,193.127,91.578
	c4.52-20.485,22.765-35.882,44.588-35.882s40.068,15.397,44.588,35.882c101.84-7.02,193.127-38.174,193.127-91.578
	C493.714,189.816,387.08,83.177,256,83.177z M296.196,143.079c1.339-4.866,6.438-7.692,11.25-6.375
	c3.107,0.857,6.17,1.795,9.196,2.804c4.795,1.594,7.384,6.772,5.795,11.563c-1.277,3.83-4.848,6.259-8.679,6.259
	c-0.955,0-1.929-0.152-2.884-0.473c-2.741-0.911-5.5-1.75-8.304-2.527C297.705,152.985,294.848,147.949,296.196,143.079z
	 M83.027,305.615c-0.429,4.75-4.42,8.317-9.098,8.317c-0.277,0-0.554-0.013-0.839-0.036c-5.027-0.46-8.732-4.906-8.277-9.933
	c0.295-3.205,0.67-6.388,1.116-9.545c0.714-4.995,5.348-8.438,10.348-7.759c4.991,0.71,8.473,5.339,7.759,10.339
	C83.625,299.851,83.286,302.722,83.027,305.615z M95.455,255.24c-1.098,2.67-2.143,5.375-3.116,8.112
	c-1.339,3.741-4.857,6.076-8.616,6.076c-1.018,0-2.053-0.174-3.072-0.536c-4.759-1.696-7.232-6.928-5.545-11.683
	c1.08-3.022,2.232-6.005,3.455-8.951c1.929-4.679,7.286-6.857,11.938-4.96C95.17,245.226,97.384,250.575,95.455,255.24z
	 M116.92,217.637c-1.732,2.312-3.411,4.674-5.036,7.076c-1.768,2.621-4.652,4.036-7.589,4.036c-1.759,0-3.536-0.504-5.098-1.563
	c-4.187-2.817-5.295-8.5-2.473-12.688c1.786-2.661,3.643-5.263,5.554-7.817c3.018-4.036,8.75-4.88,12.804-1.839
	C119.116,207.865,119.947,213.597,116.92,217.637z M146.991,186.467c-2.259,1.821-4.464,3.696-6.625,5.625
	c-1.75,1.558-3.92,2.321-6.089,2.321c-2.509,0-5.018-1.031-6.821-3.058c-3.366-3.768-3.036-9.545,0.732-12.906
	c2.393-2.134,4.83-4.205,7.321-6.214c3.947-3.179,9.696-2.545,12.857,1.375C151.536,177.543,150.92,183.298,146.991,186.467z
	 M183.839,163.668c-2.643,1.21-5.259,2.487-7.83,3.817c-1.339,0.696-2.786,1.027-4.196,1.027c-3.312,0-6.5-1.799-8.125-4.938
	c-2.321-4.482-0.571-10,3.911-12.321c2.839-1.473,5.705-2.875,8.616-4.21c4.643-2.103,10.027-0.076,12.125,4.504
	C190.446,156.137,188.429,161.566,183.839,163.668z M225.143,150.744c-2.848,0.509-5.679,1.089-8.482,1.746
	c-0.696,0.165-1.402,0.241-2.089,0.241c-4.152,0-7.902-2.844-8.893-7.058c-1.152-4.915,1.902-9.835,6.821-10.987
	c3.107-0.728,6.241-1.371,9.411-1.942c4.991-0.893,9.723,2.42,10.616,7.384C233.42,145.097,230.116,149.851,225.143,150.744z
	 M250.768,138.713c0.107-5.04,4.33-9.036,9.339-8.942c3.214,0.071,6.411,0.219,9.58,0.442c5.036,0.357,8.83,4.728,8.473,9.768
	c-0.339,4.817-4.348,8.496-9.107,8.496c-0.214,0-0.438-0.009-0.652-0.022c-2.884-0.205-5.777-0.335-8.688-0.397
	C254.661,147.945,250.661,143.762,250.768,138.713z M346.741,206.356l-64,155.429c-1.455,3.531-4.866,5.665-8.455,5.665
	c-1.161,0-2.339-0.223-3.482-0.692c-4.67-1.924-6.893-7.268-4.973-11.938l64-155.429c1.929-4.67,7.259-6.888,11.938-4.973
	C346.438,196.342,348.661,201.686,346.741,206.356z M362.545,172.829c-1.741,2.71-4.688,4.187-7.688,4.187
	c-1.696,0-3.41-0.473-4.946-1.46c-2.42-1.558-4.875-3.062-7.393-4.5c-4.384-2.504-5.902-8.094-3.393-12.473
	c2.509-4.379,8.08-5.911,12.482-3.393c2.786,1.598,5.527,3.263,8.214,5C364.062,162.927,365.286,168.588,362.545,172.829z
	 M396.071,203.802c-1.768,1.647-4,2.46-6.241,2.46c-2.446,0-4.884-0.973-6.679-2.902c-1.991-2.125-4.018-4.201-6.098-6.228
	c-3.616-3.527-3.688-9.312-0.161-12.928c3.536-3.612,9.321-3.683,12.928-0.161c2.277,2.223,4.518,4.504,6.688,6.835
	C399.955,194.57,399.759,200.356,396.071,203.802z M416.527,243.231c-3.232,0-6.366-1.719-8.036-4.759
	c-1.384-2.54-2.848-5.049-4.366-7.518c-2.643-4.304-1.295-9.933,3.009-12.576c4.286-2.638,9.929-1.299,12.58,3.005
	c1.679,2.737,3.286,5.504,4.83,8.321c2.42,4.429,0.786,9.982-3.643,12.406C419.509,242.869,418.009,243.231,416.527,243.231z
	 M424.357,278.749c-0.705-2.813-1.5-5.598-2.348-8.362c-1.482-4.826,1.232-9.942,6.053-11.424c4.822-1.478,9.947,1.237,11.429,6.058
	c0.938,3.049,1.804,6.129,2.598,9.237c1.241,4.893-1.723,9.866-6.616,11.107c-0.759,0.192-1.518,0.281-2.259,0.281
	C429.134,285.646,425.411,282.892,424.357,278.749z M438.857,330.874c-5.054,0-9.143-4.094-9.143-9.143
	c0-2.911-0.071-5.804-0.214-8.683c-0.25-5.04,3.634-9.335,8.679-9.585c4.822-0.402,9.33,3.629,9.589,8.674
	c0.161,3.183,0.232,6.379,0.232,9.594C448,326.78,443.911,330.874,438.857,330.874z"/>
<g>
	<path style="fill:#1C71DA;" d="M512,320.892c0-141.161-114.839-256-256-256S0,179.731,0,320.892
		c0,35.759,28.741,65.245,83.125,85.268c36.735,13.526,83.619,22.07,134.658,24.954c0.554,0.104,1.062,0.332,1.646,0.332
		c0.339,0,0.626-0.157,0.955-0.192c11.705,0.615,23.55,1.032,35.617,1.032c11.9,0,23.885-0.333,35.832-0.988
		c0.257,0.022,0.477,0.149,0.739,0.149c0.497,0,0.925-0.207,1.4-0.283C405.048,424.697,512,389.599,512,320.892z M230.16,413.468
		c3.699-10.778,13.823-18.594,25.84-18.594c12.017,0,22.141,7.816,25.84,18.594c-8.592,0.34-17.217,0.531-25.84,0.531
		C247.377,413.999,238.752,413.808,230.16,413.468z M300.588,412.47c-4.52-20.485-22.765-35.882-44.588-35.882
		c-21.823,0-40.068,15.397-44.588,35.882c-101.84-7.02-193.127-38.174-193.127-91.578C18.286,189.816,124.92,83.177,256,83.177
		s237.714,106.638,237.714,237.714C493.714,374.295,402.427,405.45,300.588,412.47z"/>
	<path style="fill:#1C71DA;" d="M302.571,154.329c2.804,0.777,5.563,1.616,8.304,2.527c0.955,0.321,1.929,0.473,2.884,0.473
		c3.83,0,7.402-2.429,8.679-6.259c1.589-4.79-1-9.969-5.795-11.563c-3.027-1.009-6.089-1.947-9.196-2.804
		c-4.813-1.317-9.911,1.509-11.25,6.375C294.848,147.949,297.705,152.985,302.571,154.329z"/>
	<path style="fill:#1C71DA;" d="M135.509,172.235c-2.491,2.009-4.928,4.08-7.321,6.214c-3.768,3.362-4.098,9.138-0.732,12.906
		c1.804,2.027,4.312,3.058,6.821,3.058c2.17,0,4.339-0.763,6.089-2.321c2.161-1.929,4.366-3.804,6.625-5.625
		c3.929-3.17,4.545-8.924,1.375-12.857C145.205,169.691,139.455,169.057,135.509,172.235z"/>
	<path style="fill:#1C71DA;" d="M269.053,148.476c4.759,0,8.768-3.679,9.107-8.496c0.357-5.04-3.438-9.411-8.473-9.768
		c-3.17-0.223-6.366-0.371-9.58-0.442c-5.009-0.094-9.232,3.902-9.339,8.942c-0.107,5.049,3.893,9.232,8.947,9.344
		c2.911,0.062,5.804,0.192,8.688,0.397C268.616,148.467,268.839,148.476,269.053,148.476z"/>
	<path style="fill:#1C71DA;" d="M176.214,147.043c-2.911,1.335-5.777,2.737-8.616,4.21c-4.482,2.321-6.232,7.839-3.911,12.321
		c1.625,3.138,4.813,4.938,8.125,4.938c1.411,0,2.857-0.33,4.196-1.027c2.571-1.33,5.187-2.607,7.83-3.817
		c4.589-2.103,6.607-7.531,4.5-12.12C186.241,146.967,180.857,144.94,176.214,147.043z"/>
	<path style="fill:#1C71DA;" d="M359.822,160.191c-2.688-1.737-5.429-3.402-8.214-5c-4.402-2.518-9.973-0.987-12.482,3.393
		c-2.509,4.379-0.991,9.969,3.393,12.473c2.518,1.437,4.973,2.942,7.393,4.5c1.536,0.987,3.25,1.46,4.946,1.46
		c3,0,5.947-1.478,7.688-4.187C365.286,168.588,364.062,162.927,359.822,160.191z"/>
	<path style="fill:#1C71DA;" d="M221.911,132.744c-3.17,0.571-6.304,1.214-9.411,1.942c-4.92,1.152-7.973,6.071-6.821,10.987
		c0.991,4.214,4.741,7.058,8.893,7.058c0.688,0,1.393-0.076,2.089-0.241c2.804-0.656,5.634-1.237,8.482-1.746
		c4.973-0.893,8.277-5.647,7.384-10.616C231.634,135.164,226.902,131.851,221.911,132.744z"/>
	<path style="fill:#1C71DA;" d="M438.179,303.463c-5.045,0.25-8.928,4.545-8.679,9.585c0.143,2.88,0.214,5.772,0.214,8.683
		c0,5.049,4.089,9.143,9.143,9.143c5.054,0,9.143-4.094,9.143-9.143c0-3.214-0.071-6.411-0.232-9.594
		C447.509,307.092,443,303.061,438.179,303.463z"/>
	<path style="fill:#1C71DA;" d="M389.822,184.043c-3.607-3.522-9.393-3.451-12.928,0.161c-3.527,3.616-3.455,9.402,0.161,12.928
		c2.08,2.027,4.107,4.103,6.098,6.228c1.795,1.929,4.232,2.902,6.679,2.902c2.241,0,4.473-0.813,6.241-2.46
		c3.688-3.446,3.884-9.232,0.438-12.924C394.339,188.548,392.098,186.266,389.822,184.043z"/>
	<path style="fill:#1C71DA;" d="M435.473,285.365c4.893-1.241,7.857-6.214,6.616-11.107c-0.795-3.107-1.661-6.187-2.598-9.237
		c-1.482-4.821-6.607-7.536-11.429-6.058c-4.822,1.482-7.536,6.598-6.053,11.424c0.848,2.763,1.643,5.549,2.348,8.362
		c1.053,4.143,4.777,6.897,8.857,6.897C433.955,285.646,434.714,285.557,435.473,285.365z"/>
	<path style="fill:#1C71DA;" d="M424.545,229.704c-1.545-2.817-3.152-5.585-4.83-8.321c-2.652-4.304-8.295-5.643-12.58-3.005
		c-4.304,2.643-5.652,8.272-3.009,12.576c1.518,2.469,2.982,4.978,4.366,7.518c1.67,3.04,4.804,4.759,8.036,4.759
		c1.482,0,2.982-0.362,4.375-1.12C425.33,239.686,426.964,234.132,424.545,229.704z"/>
	<path style="fill:#1C71DA;" d="M76.277,286.659c-5-0.679-9.634,2.763-10.348,7.759c-0.446,3.156-0.821,6.339-1.116,9.545
		c-0.455,5.027,3.25,9.473,8.277,9.933c0.286,0.022,0.563,0.036,0.839,0.036c4.679,0,8.67-3.567,9.098-8.317
		c0.259-2.893,0.598-5.763,1.009-8.616C84.75,291.999,81.268,287.369,76.277,286.659z"/>
	<path style="fill:#1C71DA;" d="M102.277,206.682c-1.911,2.554-3.768,5.156-5.554,7.817c-2.821,4.187-1.714,9.871,2.473,12.688
		c1.563,1.058,3.339,1.563,5.098,1.563c2.938,0,5.821-1.415,7.589-4.036c1.625-2.402,3.304-4.763,5.036-7.076
		c3.027-4.04,2.196-9.772-1.839-12.795C111.027,201.802,105.295,202.646,102.277,206.682z"/>
	<path style="fill:#1C71DA;" d="M90.5,243.298c-4.652-1.897-10.009,0.281-11.938,4.96c-1.223,2.947-2.375,5.929-3.455,8.951
		c-1.688,4.755,0.786,9.987,5.545,11.683c1.018,0.362,2.053,0.536,3.072,0.536c3.759,0,7.277-2.335,8.616-6.076
		c0.973-2.737,2.018-5.442,3.116-8.112C97.384,250.575,95.17,245.226,90.5,243.298z"/>
	<path style="fill:#1C71DA;" d="M341.768,194.418c-4.679-1.915-10.009,0.304-11.938,4.973l-64,155.429
		c-1.92,4.67,0.304,10.013,4.973,11.938c1.143,0.469,2.321,0.692,3.482,0.692c3.589,0,7-2.134,8.455-5.665l64-155.429
		C348.661,201.686,346.438,196.342,341.768,194.418z"/>
</g>
<g>
	<path style="fill:#FF5D5D;" d="M430.891,63.445c-2.339,0-4.679-0.893-6.464-2.677c-3.571-3.571-3.571-9.36,0-12.931l32.326-32.325
		c3.567-3.569,9.357-3.569,12.928,0c3.571,3.571,3.571,9.36,0,12.931l-32.326,32.325C435.571,62.552,433.23,63.445,430.891,63.445z"
		/>
	<path style="fill:#FF5D5D;" d="M463.216,63.445c-2.339,0-4.679-0.893-6.464-2.677l-32.326-32.325c-3.571-3.57-3.571-9.359,0-12.931
		c3.567-3.569,9.357-3.569,12.928,0l32.326,32.325c3.571,3.57,3.571,9.359,0,12.931C467.897,62.552,465.556,63.445,463.216,63.445z"
		/>
</g>
<path style="fill:#00D40B;" d="M69.748,109.159c-17.645,0-32-14.355-32-32s14.355-32,32-32s32,14.355,32,32
	S87.393,109.159,69.748,109.159z M69.748,63.445c-7.563,0-13.714,6.152-13.714,13.714c0,7.563,6.152,13.714,13.714,13.714
	c7.563,0,13.714-6.152,13.714-13.714C83.462,69.597,77.31,63.445,69.748,63.445z"/>
<path style="fill:#FFC504;" d="M465.893,499.165L465.893,499.165c-2.424,0-4.75-0.963-6.464-2.679l-25.859-25.861
	c-3.571-3.57-3.571-9.358,0-12.93l25.859-25.859c3.567-3.569,9.357-3.569,12.928,0l25.862,25.859
	c1.714,1.714,2.679,4.04,2.679,6.465c0,2.425-0.964,4.75-2.679,6.465l-25.862,25.861
	C470.643,498.202,468.317,499.165,465.893,499.165z M452.964,464.162l12.928,12.931l12.931-12.931l-12.931-12.93L452.964,464.162z"
	/>
<g>
</g>
<g>
</g>
<g>
</g>
<g>
</g>
<g>
</g>
<g>
</g>
<g>
</g>
<g>
</g>
<g>
</g>
<g>
</g>
<g>
</g>
<g>
</g>
<g>
</g>
<g>
</g>
<g>
</g>
</svg>
