<?xml version="1.0" encoding="UTF-8" standalone="no"?>
<!-- Generator: Adobe Illustrator 19.0.0, SVG Export Plug-In . SVG Version: 6.00 Build 0)  -->

<svg
   version="1.1"
   id="Layer_1"
   x="0px"
   y="0px"
   viewBox="0 0 502 502"
   style="enable-background:new 0 0 502 502;"
   xml:space="preserve"
   sodipodi:docname="qr-mobile.svg"
   inkscape:version="1.2.2 (b0a8486541, 2022-12-01)"
   xmlns:inkscape="http://www.inkscape.org/namespaces/inkscape"
   xmlns:sodipodi="http://sodipodi.sourceforge.net/DTD/sodipodi-0.dtd"
   xmlns="http://www.w3.org/2000/svg"
   xmlns:svg="http://www.w3.org/2000/svg"
   xmlns:rdf="http://www.w3.org/1999/02/22-rdf-syntax-ns#"
   xmlns:cc="http://creativecommons.org/ns#"
   xmlns:dc="http://purl.org/dc/elements/1.1/"><metadata
   id="metadata49"><rdf:RDF><cc:Work
       rdf:about=""><dc:format>image/svg+xml</dc:format><dc:type
         rdf:resource="http://purl.org/dc/dcmitype/StillImage" /></cc:Work></rdf:RDF></metadata><defs
   id="defs47" /><sodipodi:namedview
   pagecolor="#ffffff"
   bordercolor="#666666"
   borderopacity="1"
   objecttolerance="10"
   gridtolerance="10"
   guidetolerance="10"
   inkscape:pageopacity="0"
   inkscape:pageshadow="2"
   inkscape:window-width="1920"
   inkscape:window-height="989"
   id="namedview45"
   showgrid="false"
   inkscape:zoom="0.47011952"
   inkscape:cx="149.96187"
   inkscape:cy="251"
   inkscape:window-x="0"
   inkscape:window-y="0"
   inkscape:window-maximized="1"
   inkscape:current-layer="g8"
   inkscape:showpageshadow="2"
   inkscape:pagecheckerboard="0"
   inkscape:deskcolor="#d1d1d1" />
<g
   id="g12"
   style="fill:#999999">
	<g
   id="g10"
   style="fill:#999999">
		<g
   id="g8"
   style="fill:#999999">
			<path
   id="path2"
   style="fill:#ececec"
   d="M 103.04492 0 C 97.522018 0 93.044922 4.478077 93.044922 10 L 93.044922 492 C 93.044922 497.52186 97.522018 502 103.04492 502 L 398.95508 502 C 404.47794 502 408.95508 497.52186 408.95508 492 L 408.95508 10 C 408.95608 4.478077 404.47794 0 398.95508 0 L 103.04492 0 z M 123.93555 52.818359 L 236.60352 52.818359 L 236.60352 165.48438 L 123.93555 165.48438 L 123.93555 52.818359 z M 274.1582 52.818359 L 386.82617 52.818359 L 386.82617 165.48438 L 274.1582 165.48438 L 274.1582 52.818359 z M 142.71289 71.595703 L 142.71289 146.70703 L 217.82617 146.70703 L 217.82617 71.595703 L 142.71289 71.595703 z M 292.9375 71.595703 L 292.9375 146.70703 L 368.04883 146.70703 L 368.04883 71.595703 L 292.9375 71.595703 z M 161.49219 90.373047 L 199.04688 90.373047 L 199.04688 127.92969 L 161.49219 127.92969 L 161.49219 90.373047 z M 311.71484 90.373047 L 349.26953 90.373047 L 349.26953 127.92969 L 311.71484 127.92969 L 311.71484 90.373047 z M 123.93555 203.04102 L 236.60352 203.04102 L 236.60352 315.70898 L 123.93555 315.70898 L 123.93555 203.04102 z M 274.1582 203.04102 L 311.71484 203.04102 L 311.71484 221.81836 L 330.49219 221.81836 L 330.49219 278.15234 L 349.26953 278.15234 L 349.26953 240.5957 L 368.04688 240.5957 L 368.04688 278.15234 L 349.26953 278.15234 L 349.26953 296.92969 L 330.49219 296.92969 L 330.49219 278.15234 L 292.9375 278.15234 L 292.9375 296.92969 L 311.71484 296.92969 L 311.71484 315.70898 L 274.1582 315.70898 L 274.1582 278.15234 L 292.9375 278.15234 L 292.9375 259.375 L 274.1582 259.375 L 274.1582 240.5957 L 292.9375 240.5957 L 292.9375 259.375 L 311.71484 259.375 L 311.71484 221.81836 L 274.1582 221.81836 L 274.1582 203.04102 z M 349.27148 203.04102 L 386.82617 203.04102 L 386.82617 240.5957 L 368.04883 240.5957 L 368.04883 221.81836 L 349.27148 221.81836 L 349.27148 203.04102 z M 142.71289 221.81836 L 142.71289 296.92969 L 217.82617 296.92969 L 217.82617 221.81836 L 142.71289 221.81836 z M 161.49219 240.5957 L 199.04688 240.5957 L 199.04688 278.15234 L 161.49219 278.15234 L 161.49219 240.5957 z M 368.04883 278.15234 L 386.82617 278.15234 L 386.82617 315.70898 L 349.27148 315.70898 L 349.27148 296.92969 L 368.04883 296.92969 L 368.04883 278.15234 z M 113.04492 407.43164 L 388.95508 407.43164 L 388.95508 482 L 113.04492 482 L 113.04492 407.43164 z " />
			<path
   d="M251,414.886c-16.728,0-30.337,13.609-30.337,30.338s13.609,30.338,30.337,30.338c16.728,0,30.337-13.609,30.337-30.338     S267.729,414.886,251,414.886z M251,455.562c-5.7,0-10.337-4.638-10.337-10.338S245.3,434.886,251,434.886     s10.337,4.638,10.337,10.338S256.701,455.562,251,455.562z"
   id="path4"
   style="fill:#ececec" />
			
		</g>
	</g>
</g>
<g
   id="g14"
   style="fill:#999999">
</g>
<g
   id="g16"
   style="fill:#999999">
</g>
<g
   id="g18"
   style="fill:#999999">
</g>
<g
   id="g20"
   style="fill:#999999">
</g>
<g
   id="g22"
   style="fill:#999999">
</g>
<g
   id="g24"
   style="fill:#999999">
</g>
<g
   id="g26"
   style="fill:#999999">
</g>
<g
   id="g28"
   style="fill:#999999">
</g>
<g
   id="g30"
   style="fill:#999999">
</g>
<g
   id="g32"
   style="fill:#999999">
</g>
<g
   id="g34"
   style="fill:#999999">
</g>
<g
   id="g36"
   style="fill:#999999">
</g>
<g
   id="g38"
   style="fill:#999999">
</g>
<g
   id="g40"
   style="fill:#999999">
</g>
<g
   id="g42"
   style="fill:#999999">
</g>
</svg>
