<?xml version="1.0" encoding="UTF-8" standalone="no"?>
<svg
   xmlns:dc="http://purl.org/dc/elements/1.1/"
   xmlns:cc="http://creativecommons.org/ns#"
   xmlns:rdf="http://www.w3.org/1999/02/22-rdf-syntax-ns#"
   xmlns:svg="http://www.w3.org/2000/svg"
   xmlns="http://www.w3.org/2000/svg"
   xmlns:sodipodi="http://sodipodi.sourceforge.net/DTD/sodipodi-0.dtd"
   xmlns:inkscape="http://www.inkscape.org/namespaces/inkscape"
   version="1.1"
   id="mdi-home-assistant"
   width="24"
   height="24"
   viewBox="0 0 24 24"
   sodipodi:docname="ha_icon_dark.svg"
   inkscape:version="0.92.5 (2060ec1f9f, 2020-04-08)">
  <metadata
     id="metadata9">
    <rdf:RDF>
      <cc:Work
         rdf:about="">
        <dc:format>image/svg+xml</dc:format>
        <dc:type
           rdf:resource="http://purl.org/dc/dcmitype/StillImage" />
      </cc:Work>
    </rdf:RDF>
  </metadata>
  <defs
     id="defs7" />
  <sodipodi:namedview
     pagecolor="#ffffff"
     bordercolor="#666666"
     borderopacity="1"
     objecttolerance="10"
     gridtolerance="10"
     guidetolerance="10"
     inkscape:pageopacity="0"
     inkscape:pageshadow="2"
     inkscape:window-width="1920"
     inkscape:window-height="995"
     id="namedview5"
     showgrid="false"
     inkscape:zoom="9.8333333"
     inkscape:cx="-0.61016949"
     inkscape:cy="12"
     inkscape:window-x="0"
     inkscape:window-y="0"
     inkscape:window-maximized="1"
     inkscape:current-layer="mdi-home-assistant" />
  <path
     d="M21.8,13H20V21H13V17.67L15.79,14.88L16.5,15C17.66,15 18.6,14.06 18.6,12.9C18.6,11.74 17.66,10.8 16.5,10.8A2.1,2.1 0 0,0 14.4,12.9L14.5,13.61L13,15.13V9.65C13.66,9.29 14.1,8.6 14.1,7.8A2.1,2.1 0 0,0 12,5.7A2.1,2.1 0 0,0 9.9,7.8C9.9,8.6 10.34,9.29 11,9.65V15.13L9.5,13.61L9.6,12.9A2.1,2.1 0 0,0 7.5,10.8A2.1,2.1 0 0,0 5.4,12.9A2.1,2.1 0 0,0 7.5,15L8.21,14.88L11,17.67V21H4V13H2.25C1.83,13 1.42,13 1.42,12.79C1.43,12.57 1.85,12.15 2.28,11.72L11,3C11.33,2.67 11.67,2.33 12,2.33C12.33,2.33 12.67,2.67 13,3L17,7V6H19V9L21.78,11.78C22.18,12.18 22.59,12.59 22.6,12.8C22.6,13 22.2,13 21.8,13M7.5,12A0.9,0.9 0 0,1 8.4,12.9A0.9,0.9 0 0,1 7.5,13.8A0.9,0.9 0 0,1 6.6,12.9A0.9,0.9 0 0,1 7.5,12M16.5,12C17,12 17.4,12.4 17.4,12.9C17.4,13.4 17,13.8 16.5,13.8A0.9,0.9 0 0,1 15.6,12.9A0.9,0.9 0 0,1 16.5,12M12,6.9C12.5,6.9 12.9,7.3 12.9,7.8C12.9,8.3 12.5,8.7 12,8.7C11.5,8.7 11.1,8.3 11.1,7.8C11.1,7.3 11.5,6.9 12,6.9Z"
     id="path2" />
</svg>
