<?xml version="1.0" encoding="iso-8859-1"?>
<!-- Generator: Adobe Illustrator 19.0.0, SVG Export Plug-In . SVG Version: 6.00 Build 0)  -->
<svg version="1.1" id="Layer_1" xmlns="http://www.w3.org/2000/svg" xmlns:xlink="http://www.w3.org/1999/xlink" x="0px" y="0px"
	 viewBox="0 0 512 512" style="enable-background:new 0 0 512 512;" xml:space="preserve">
<circle style="fill:#BDC4D0;" cx="256" cy="256" r="243.2"/>
<circle style="fill:#FF877F;" cx="256" cy="307.2" r="25.6"/>
<g>
	<path style="fill:#573A32;" d="M256,0C114.842,0,0,114.842,0,256s114.842,256,256,256s256-114.842,256-256S397.158,0,256,0z
		 M427.537,409.429l-35.772-35.772l-18.099,18.099l35.772,35.772C368.674,464.026,315.017,486.4,256,486.4
		s-112.674-22.374-153.438-58.863l35.772-35.772l-18.099-18.099l-35.772,35.763C50.645,371.652,29.218,322.748,26.249,268.8H76.8
		v-25.6H26.249c2.97-53.948,24.405-102.852,58.223-140.638l35.772,35.772l18.099-18.099l-35.772-35.772
		c37.777-33.818,86.682-55.245,140.629-58.214V76.8h25.6V26.249c53.948,2.97,102.852,24.405,140.638,58.223l-35.772,35.772
		l18.099,18.099l35.772-35.772c33.818,37.777,55.245,86.682,58.223,140.638H435.2v25.6h50.551
		C482.782,322.748,461.355,371.652,427.537,409.429z"/>
	<path style="fill:#573A32;" d="M256,345.6c21.171,0,38.4-17.229,38.4-38.4c0-16.666-10.735-30.737-25.6-36.045V153.6h-25.6v117.555
		c-14.865,5.299-25.6,19.379-25.6,36.045C217.6,328.371,234.829,345.6,256,345.6z M256,294.4c7.066,0,12.8,5.734,12.8,12.8
		S263.066,320,256,320c-7.066,0-12.8-5.734-12.8-12.8S248.934,294.4,256,294.4z"/>
	<rect x="192" y="409.6" style="fill:#573A32;" width="128" height="25.6"/>
</g>
<g>
</g>
<g>
</g>
<g>
</g>
<g>
</g>
<g>
</g>
<g>
</g>
<g>
</g>
<g>
</g>
<g>
</g>
<g>
</g>
<g>
</g>
<g>
</g>
<g>
</g>
<g>
</g>
<g>
</g>
</svg>
